<svg width="32" height="32" viewBox="0 0 32 32" fill="none" xmlns="http://www.w3.org/2000/svg">
<path d="M20.4428 11.5573C21.5978 11.5227 22.6939 11.0395 23.4986 10.2102C24.3034 9.38098 24.7535 8.27088 24.7535 7.11534C24.7535 5.9598 24.3034 4.8497 23.4986 4.02045C22.6939 3.19119 21.5978 2.708 20.4428 2.67334H11.5575C10.4024 2.708 9.30634 3.19119 8.5016 4.02045C7.69686 4.8497 7.24677 5.9598 7.24677 7.11534C7.24677 8.27088 7.69686 9.38098 8.5016 10.2102C9.30634 11.0395 10.4024 11.5227 11.5575 11.5573C10.3923 11.5775 9.28177 12.0545 8.46495 12.8856C7.64813 13.7167 7.19043 14.8354 7.19043 16.0007C7.19043 17.166 7.64813 18.2846 8.46495 19.1157C9.28177 19.9468 10.3923 20.4238 11.5575 20.444C10.398 20.4724 9.29565 20.9529 8.48567 21.783C7.6757 22.6131 7.22231 23.7269 7.22231 24.8867C7.22231 26.0464 7.6757 27.1603 8.48567 27.9903C9.29565 28.8204 10.398 29.3009 11.5575 29.3293C12.7357 29.3286 13.8655 28.8602 14.6986 28.0269C15.5316 27.1936 15.9998 26.0636 16.0001 24.8853V11.5573H20.4428Z" fill="white"/>
<path d="M20.4427 20.4427C22.8963 20.4427 24.8853 18.4537 24.8853 16C24.8853 13.5464 22.8963 11.5574 20.4427 11.5574C17.989 11.5574 16 13.5464 16 16C16 18.4537 17.989 20.4427 20.4427 20.4427Z" fill="white"/>
</svg>
