<svg width="64" height="64" viewBox="0 0 64 64" fill="none" xmlns="http://www.w3.org/2000/svg">
<path d="M64 32C64 47.9961 52.2631 61.2506 36.9306 63.6225C36.5845 63.676 36.2357 63.7244 35.8857 63.7661C34.7599 63.9032 33.6158 63.9804 32.4571 63.996C32.3044 63.9987 32.1529 64 32 64C31.8471 64 31.6956 63.9987 31.5429 63.9961C30.3844 63.9805 29.2401 63.9034 28.1143 63.7663C27.7643 63.7245 27.4155 63.6761 27.0694 63.6226C11.7369 61.2506 0 47.9961 0 32C0 14.3269 14.3269 0 32 0C49.6731 0 64 14.3269 64 32Z" fill="white"/>
<path fill-rule="evenodd" clip-rule="evenodd" d="M63.8027 35.567C63.9334 34.3954 64 33.2055 64 32C64 14.3269 49.6719 0 32 0C14.3295 0 0 14.3269 0 32C0 33.2055 0.066625 34.3954 0.197125 35.567C0.2115 35.6989 0.225875 35.8295 0.242875 35.9601C0.323875 36.6236 0.427125 37.2819 0.549875 37.9324C0.572 38.0604 0.596875 38.1884 0.623 38.3151V38.3164C2.8865 49.6261 11.1125 58.7794 21.8827 62.3645C23.4827 62.661 24.0693 61.6696 24.0693 60.8246C24.0693 60.4672 24.0629 59.7236 24.0547 58.7592L24.0547 58.758L24.0547 58.7561C24.0454 57.663 24.0338 56.2867 24.0261 54.8674C15.1236 56.803 13.2454 51.0914 13.2454 51.0914C11.7891 47.3937 9.69275 46.4089 9.69275 46.4089C6.78788 44.4235 9.91088 44.464 9.91088 44.464C13.1239 44.69 14.8166 47.762 14.8166 47.762C17.6705 52.6535 22.302 51.2402 24.128 50.4226C24.4154 48.3538 25.2448 46.9419 26.1604 46.1425C20.6341 45.5143 14.8885 43.7156 12.6041 37.1838C12.5597 37.0558 12.5153 36.9251 12.4735 36.7933C12.3455 36.3949 12.2305 35.9782 12.1286 35.5446C12.0985 35.4154 12.0697 35.2848 12.0424 35.1515C11.742 33.7344 11.58 32.1344 11.58 30.328C11.58 26.8355 12.8313 23.9803 14.878 21.739C14.5463 20.9331 13.4504 17.6782 15.1875 13.2701C15.1875 13.2701 17.8755 12.4107 23.9895 16.5511C26.543 15.842 29.2806 15.4866 32 15.4736C34.7192 15.4866 37.4583 15.8419 40.0156 16.5511C46.1244 12.4107 48.8071 13.2701 48.8071 13.2701C50.5495 17.6782 49.4536 20.9331 49.1206 21.739C51.1725 23.9803 52.4146 26.8354 52.4146 30.328C52.4146 32.1357 52.2526 33.7357 51.9535 35.1529C51.9261 35.2861 51.896 35.4168 51.866 35.546C51.7641 35.9796 51.6505 36.395 51.5225 36.7934C51.4807 36.9252 51.4376 37.0559 51.3919 37.1839C49.1061 43.7275 43.3449 45.5012 37.803 46.1177C38.9498 47.1104 39.9725 49.0579 39.9725 52.0436C39.9725 54.9053 39.9561 57.3935 39.9453 59.0438L39.9453 59.0457C39.9399 59.8636 39.9359 60.4755 39.9359 60.8247C39.9359 61.6776 40.5119 62.6742 42.1341 62.3607C52.8979 58.7729 61.1146 49.6209 63.3769 38.3164C63.403 38.1896 63.4279 38.0616 63.4514 37.9324C63.5729 37.2819 63.6761 36.6236 63.7584 35.9601C63.774 35.8295 63.7884 35.6976 63.8027 35.567ZM11.2838 45.5615C11.3529 45.3982 11.6038 45.3525 11.8349 45.4622C12.0674 45.5667 12.2006 45.7861 12.1198 45.9455C12.0491 46.1049 11.7998 46.1519 11.5711 46.0421C11.3386 45.9376 11.2093 45.7209 11.2838 45.5615ZM13.3251 46.7252C13.1148 46.5032 12.8261 46.4365 12.6694 46.5775C12.5141 46.7212 12.5532 47.0203 12.7622 47.2424C12.9647 47.4658 13.2637 47.5324 13.4166 47.3913C13.5759 47.2475 13.5341 46.951 13.3251 46.7252ZM13.9674 48.1946C14.1647 48.0588 14.4808 48.1815 14.6819 48.4636C14.8778 48.7524 14.8778 49.0945 14.6779 49.233C14.4807 49.3702 14.1607 49.2421 13.9622 48.9574C13.7663 48.6726 13.7663 48.3318 13.9674 48.1946ZM16.2313 50.1968C15.9557 49.9343 15.5796 49.8807 15.4019 50.0741C15.2269 50.2673 15.3039 50.6344 15.5834 50.8917C15.8577 51.1556 16.2313 51.2078 16.4063 51.0144C16.5932 50.8224 16.5083 50.4542 16.2313 50.1968ZM17.4654 51.6491C17.5399 51.3971 17.9017 51.2782 18.2674 51.3919C18.6293 51.5016 18.8657 51.7929 18.791 52.0475C18.7127 52.2982 18.3535 52.4119 17.9904 52.3061C17.6287 52.1964 17.3923 51.9025 17.4654 51.6491ZM20.7176 51.7734C20.3348 51.7799 20.0344 51.9954 20.0344 52.2619C20.0383 52.5218 20.3479 52.736 20.7306 52.7269C21.1107 52.723 21.4189 52.5035 21.4097 52.2398C21.4098 51.9785 21.0976 51.7655 20.7176 51.7734ZM23.0818 51.4742C23.4593 51.4089 23.7988 51.563 23.8471 51.8255C23.8916 52.0829 23.6278 52.3467 23.2503 52.4172C22.878 52.485 22.5345 52.3258 22.4875 52.071C22.4405 51.8072 22.7095 51.542 23.0818 51.4742Z" fill="url(#paint0_linear)"/>
<g filter="url(#filter0_i)">
<circle cx="32" cy="32" r="32" fill="white" fill-opacity="0.01"/>
</g>
<circle cx="32" cy="32" r="30.5" stroke="white" stroke-width="3"/>
<defs>
<filter id="filter0_i" x="0" y="0" width="64" height="66" filterUnits="userSpaceOnUse" color-interpolation-filters="sRGB">
<feFlood flood-opacity="0" result="BackgroundImageFix"/>
<feBlend mode="normal" in="SourceGraphic" in2="BackgroundImageFix" result="shape"/>
<feColorMatrix in="SourceAlpha" type="matrix" values="0 0 0 0 0 0 0 0 0 0 0 0 0 0 0 0 0 0 127 0" result="hardAlpha"/>
<feOffset dy="2"/>
<feGaussianBlur stdDeviation="5"/>
<feComposite in2="hardAlpha" operator="arithmetic" k2="-1" k3="1"/>
<feColorMatrix type="matrix" values="0 0 0 0 0 0 0 0 0 0 0 0 0 0 0 0 0 0 0.25 0"/>
<feBlend mode="normal" in2="shape" result="effect1_innerShadow"/>
</filter>
<linearGradient id="paint0_linear" x1="32" y1="0" x2="32" y2="62.4198" gradientUnits="userSpaceOnUse">
<stop stop-color="#A05AE7"/>
<stop offset="1" stop-color="#551E8B"/>
</linearGradient>
</defs>
</svg>
