<svg width="80" height="80" viewBox="0 0 80 80" fill="none" xmlns="http://www.w3.org/2000/svg">
<g clip-path="url(#clip0)">
<path d="M79.0842 0.915107C77.8638 -0.305361 75.8852 -0.305361 74.6649 0.915107L65.9874 9.59261C58.7469 3.38886 49.6185 -0.000205062 39.9995 -0.000205062C29.3152 -0.000205062 19.2703 4.16042 11.7152 11.7154C4.16002 19.2704 -0.000449203 29.3154 -0.000449203 39.9998C-0.000449203 49.6278 3.38564 58.7498 9.5908 65.9892L0.914863 74.6651C-0.305606 75.8856 -0.305606 77.8642 0.914863 79.0845C1.52502 79.6946 2.32471 79.9998 3.12455 79.9998C3.92439 79.9998 4.72408 79.6946 5.33424 79.0845L79.0842 5.33448C80.3047 4.11417 80.3047 2.13542 79.0842 0.915107V0.915107ZM6.24955 39.9998C6.24955 21.39 21.3897 6.2498 39.9995 6.2498C47.9508 6.2498 55.5044 8.99464 61.5522 14.0278L14.0274 61.5526C8.9933 55.5057 6.24955 47.9582 6.24955 39.9998V39.9998ZM76.1602 22.8795C78.7078 28.2518 79.9995 34.0118 79.9995 39.9998C79.9995 47.8953 77.656 55.5739 73.2224 62.2054C72.6199 63.1067 71.63 63.5939 70.6216 63.5939C70.0245 63.5939 69.4211 63.4232 68.8875 63.0665C67.4527 62.1073 67.0672 60.1665 68.0264 58.7318C71.7706 53.1317 73.7495 46.6543 73.7495 39.9998C73.7495 34.9454 72.6606 30.0864 70.513 25.5576C69.7735 23.9982 70.4381 22.1345 71.9975 21.395C73.5572 20.6551 75.4206 21.3201 76.1602 22.8795V22.8795ZM61.7505 69.9434C62.6447 71.4195 62.1728 73.3412 60.6966 74.2353C54.471 78.0065 47.3141 79.9998 39.9995 79.9998C34.1419 79.9998 28.496 78.7615 23.2185 76.3193C21.6522 75.5945 20.97 73.7371 21.6949 72.1709C22.4197 70.6046 24.277 69.9228 25.8433 70.6473C30.2922 72.7059 35.055 73.7498 39.9995 73.7498C46.1722 73.7498 52.2094 72.0692 57.4586 68.8895C58.9346 67.9951 60.8563 68.467 61.7505 69.9434Z" fill="url(#paint0_linear)"/>
</g>
<defs>
<linearGradient id="paint0_linear" x1="29.8395" y1="1.41152" x2="80.132" y2="37.4672" gradientUnits="userSpaceOnUse">
<stop stop-color="#FF7A00"/>
<stop offset="1" stop-color="#FF005C"/>
</linearGradient>
<clipPath id="clip0">
<rect width="80" height="80" fill="white"/>
</clipPath>
</defs>
</svg>
