<svg width="405" height="146" viewBox="0 0 405 146" fill="none" xmlns="http://www.w3.org/2000/svg">
<path d="M130.738 113.6H107.938V143H76.3383V113.6H0.938282V91.8L66.9383 2.99999H100.938L39.7383 87.2H77.3383V61H107.938V87.2H130.738V113.6ZM200.429 145.4C188.829 145.4 178.496 142.533 169.429 136.8C160.362 131.067 153.229 122.8 148.029 112C142.962 101.067 140.429 88.0667 140.429 73C140.429 57.9333 142.962 45 148.029 34.2C153.229 23.2667 160.362 14.9333 169.429 9.19999C178.496 3.46666 188.829 0.599998 200.429 0.599998C212.029 0.599998 222.362 3.46666 231.429 9.19999C240.496 14.9333 247.562 23.2667 252.629 34.2C257.829 45 260.429 57.9333 260.429 73C260.429 88.0667 257.829 101.067 252.629 112C247.562 122.8 240.496 131.067 231.429 136.8C222.362 142.533 212.029 145.4 200.429 145.4ZM200.429 118C208.962 118 215.629 114.333 220.429 107C225.362 99.6667 227.829 88.3333 227.829 73C227.829 57.6667 225.362 46.3333 220.429 39C215.629 31.6667 208.962 28 200.429 28C192.029 28 185.362 31.6667 180.429 39C175.629 46.3333 173.229 57.6667 173.229 73C173.229 88.3333 175.629 99.6667 180.429 107C185.362 114.333 192.029 118 200.429 118ZM404.371 113.6H381.571V143H349.971V113.6H274.571V91.8L340.571 2.99999H374.571L313.371 87.2H350.971V61H381.571V87.2H404.371V113.6Z" fill="url(#paint0_linear)"/>
<defs>
<linearGradient id="paint0_linear" x1="143.223" y1="1.54117" x2="214.272" y2="161.07" gradientUnits="userSpaceOnUse">
<stop stop-color="#FF7A00"/>
<stop offset="1" stop-color="#FF005C"/>
</linearGradient>
</defs>
</svg>
