<svg width="1000" height="425" viewBox="0 0 1000 425" fill="none" xmlns="http://www.w3.org/2000/svg">
<path fill-rule="evenodd" clip-rule="evenodd" d="M500 136C537.555 136 568 105.555 568 68H996V112C996 113.105 996.895 114 998 114C999.105 114 1000 113.105 1000 112V66C1000 64.8954 999.105 64 998 64H567.884C565.814 28.3065 536.213 0 500 0C463.787 0 434.186 28.3065 432.116 64H2C0.895431 64 0 64.8954 0 66V112C0 113.105 0.89543 114 2 114C3.10457 114 4 113.105 4 112L4 68H432C432 105.555 462.445 136 500 136ZM436 68H564C564 103.346 535.346 132 500 132C464.654 132 436 103.346 436 68ZM436.123 64H563.877C561.812 30.5171 534.003 4 500 4C465.997 4 438.188 30.5171 436.123 64ZM0 423C0 424.105 0.895431 425 2 425H998C999.105 425 1000 424.105 1000 423V377C1000 375.895 999.105 375 998 375C996.895 375 996 375.895 996 377V421H4L4 377C4 375.895 3.10457 375 2 375C0.89543 375 0 375.895 0 377V423Z" fill="url(#paint0_linear)"/>
<defs>
<linearGradient id="paint0_linear" x1="373" y1="7.49998" x2="620.5" y2="425" gradientUnits="userSpaceOnUse">
<stop stop-color="#FF7A00"/>
<stop offset="1" stop-color="#FF005C"/>
</linearGradient>
</defs>
</svg>
