<svg width="128" height="128" viewBox="0 0 128 128" fill="none" xmlns="http://www.w3.org/2000/svg">
<path d="M121.6 92.8V35.2C121.6 29.888 117.312 25.6 112 25.6H22.3358C17.0238 25.6 12.7358 29.888 12.7358 35.2V92.8C12.7358 98.112 17.0238 102.4 22.3358 102.4H112C117.312 102.4 121.6 98.112 121.6 92.8ZM113.216 34.496C115.328 36.608 114.176 38.784 113.024 39.872L87.0398 63.68L112 89.664C112.768 90.56 113.28 91.968 112.384 92.928C111.552 93.952 109.632 93.888 108.8 93.248L80.8318 69.376L67.1358 81.856L53.5038 69.376L25.5358 93.248C24.7038 93.888 22.7838 93.952 21.9518 92.928C21.0558 91.968 21.5678 90.56 22.3358 89.664L47.2958 63.68L21.3118 39.872C20.1598 38.784 19.0078 36.608 21.1198 34.496C23.2318 32.384 25.4078 33.408 27.1998 34.944L67.1358 67.2L107.136 34.944C108.928 33.408 111.104 32.384 113.216 34.496Z" fill="url(#paint0_linear)"/>
<defs>
<linearGradient id="paint0_linear" x1="53.3421" y1="26.9553" x2="104.315" y2="78.7552" gradientUnits="userSpaceOnUse">
<stop stop-color="#FF7A00"/>
<stop offset="1" stop-color="#FF005C"/>
</linearGradient>
</defs>
</svg>
